<svg id="Layer_1" data-name="Layer 1" xmlns="http://www.w3.org/2000/svg" viewBox="0 0 369.04 126.86"><defs><style>.cls-1{fill:#fde807;}.cls-1,.cls-2,.cls-3,.cls-4{fill-rule:evenodd;}.cls-2{fill:#ffce18;}.cls-3,.cls-6{fill:#f17830;}.cls-4{fill:#faa230;}.cls-5{fill:none;stroke:#333132;stroke-miterlimit:10;stroke-width:1.7px;}.cls-7{fill:#fff;}</style></defs><title>bes-logo</title><polygon class="cls-1" points="27.03 47.65 54.78 63.4 83.03 47.65 55.03 31.4 27.03 47.65"/><polygon class="cls-2" points="54.78 63.4 54.78 95.4 26.78 79.65 27.03 47.65 54.78 63.4"/><polygon class="cls-3" points="54.93 0 82.4 15.86 109.86 31.71 109.86 63.43 109.86 95.14 82.4 111 54.93 126.86 27.47 111 0 95.14 0 63.43 0 31.71 13.63 23.84 13.63 39.5 13.56 39.54 13.56 87.32 54.93 111.2 96.31 87.32 96.31 39.54 54.93 15.66 26.94 31.81 26.94 16.16 27.47 15.86 54.93 0 54.93 0"/><polygon class="cls-4" points="54.72 63.4 82.9 47.65 82.7 79.71 54.78 95.4 54.72 63.4"/><circle class="cls-5" cx="45.94" cy="53.14" r="3.67"/><line class="cls-5" x1="49.53" y1="53.24" x2="82.9" y2="53.24"/><circle class="cls-5" cx="54.75" cy="63.85" r="3.67"/><line class="cls-5" x1="58.21" y1="63.95" x2="83.29" y2="63.95"/><circle class="cls-5" cx="68.9" cy="74.18" r="3.67"/><line class="cls-5" x1="72.46" y1="74.29" x2="82.78" y2="74.29"/><path class="cls-6" d="M139.63,20c5.16,0,8.45,2.24,8.45,5.75a5.15,5.15,0,0,1-3.95,5.06,5.67,5.67,0,0,1,4.73,5.82c0,3.91-3.42,6.38-8.85,6.38H128.75V20h10.88Zm-5.06,9.21h4.73c1.71,0,2.8-.92,2.8-2.4s-1.09-2.33-2.8-2.33h-4.73v4.74Zm0,9.31h4.73c2.17,0,3.52-1,3.52-2.6s-1.35-2.5-3.52-2.5h-4.73v5.1Z"/><path class="cls-6" d="M176.29,31.46c0,6.71-5.33,11.8-12.46,11.8S151.4,38.2,151.4,31.46s5.33-11.67,12.43-11.67S176.29,24.79,176.29,31.46Zm-18.91,0a6.69,6.69,0,0,0,6.51,6.87,6.57,6.57,0,0,0,6.38-6.87,6.51,6.51,0,0,0-6.38-6.81A6.62,6.62,0,0,0,157.38,31.5Z"/><path class="cls-6" d="M200.75,33.34c0,6.08-4,9.93-10.49,9.93s-10.62-3.85-10.62-9.93V20h5.85V33.34c0,3.12,2,5,4.8,5s4.64-1.91,4.64-5V20h5.82V33.34Z"/><path class="cls-6" d="M221.23,38.1V43H205.61V20h5.85V38.1h9.77Z"/><path class="cls-6" d="M234.57,20c7.23,0,12.23,4.67,12.23,11.51S241.74,43,234.34,43h-9.67V20h9.9Zm-4,18.35h4.18c3.58,0,6.15-2.76,6.15-6.81s-2.7-6.87-6.41-6.87h-3.91V38.34Z"/><path class="cls-6" d="M256.4,24.59v4.57h11v4.6h-11V38.4h12.53V43H250.55V20h18v4.6H256.4Z"/><path class="cls-6" d="M283.82,36.53h-4.6V43h-5.85V20h10.29c6.08,0,9.57,2.89,9.57,8,0,3.52-1.48,6.05-4.18,7.4l4.83,7.6h-6.64Zm-0.17-4.6c2.53,0,4-1.28,4-3.72s-1.48-3.62-4-3.62h-4.44v7.33h4.44Z"/><path class="cls-7" d="M134.6,56.11v4.57h11v4.6h-11v4.64h12.53v4.6H128.75v-23h18v4.6H134.6Z"/><path class="cls-7" d="M167.64,74.53L157.05,60.35V74.53h-5.49v-23h5.16l10.62,14.21V51.51h5.46v23h-5.16Z"/><path class="cls-7" d="M198.41,62.82v9a18.08,18.08,0,0,1-9.57,3c-7,0-12.3-5.06-12.3-11.77S182,51.31,189.24,51.31a14.72,14.72,0,0,1,9.41,3.42l-3.29,4a9.44,9.44,0,0,0-6.15-2.5,6.84,6.84,0,0,0,.07,13.68,9.77,9.77,0,0,0,4.08-1.12v-6h5.06Z"/><path class="cls-7" d="M203.14,74.53v-23H209v23h-5.85Z"/><path class="cls-7" d="M230.33,74.53L219.75,60.35V74.53h-5.49v-23h5.16L230,65.71V51.51h5.46v23h-5.16Z"/><path class="cls-7" d="M246.61,56.11v4.57h11v4.6h-11v4.64h12.53v4.6H240.75v-23h18v4.6H246.61Z"/><path class="cls-7" d="M269.42,56.11v4.57h11v4.6h-11v4.64H282v4.6H263.57v-23h18v4.6H269.42Z"/><path class="cls-7" d="M296.84,68h-4.6v6.48h-5.85v-23h10.29c6.08,0,9.57,2.89,9.57,8,0,3.52-1.48,6-4.18,7.4l4.83,7.6h-6.64Zm-0.17-4.6c2.53,0,4-1.28,4-3.72s-1.48-3.62-4-3.62h-4.44v7.33h4.44Z"/><path class="cls-7" d="M310.84,74.53v-23h5.85v23h-5.85Z"/><path class="cls-7" d="M338,74.53L327.45,60.35V74.53H322v-23h5.16l10.62,14.21V51.51h5.46v23H338Z"/><path class="cls-7" d="M368.81,62.82v9a18.08,18.08,0,0,1-9.57,3c-7,0-12.3-5.06-12.3-11.77s5.43-11.71,12.69-11.71A14.72,14.72,0,0,1,369,54.73l-3.29,4a9.44,9.44,0,0,0-6.15-2.5,6.84,6.84,0,0,0,.07,13.68,9.77,9.77,0,0,0,4.08-1.12v-6h5.06Z"/><path class="cls-7" d="M146.67,85.33l-2.2,4.57a17.15,17.15,0,0,0-7.37-2.4c-1.51,0-2.53.56-2.53,1.68,0,4,12.17,1.71,12.17,10,0,4.6-4.08,7-9.21,7A17.17,17.17,0,0,1,127,102.56l2.27-4.5a14.35,14.35,0,0,0,8.32,3.45c1.84,0,3-.69,3-2,0-4.08-12.17-1.64-12.17-9.8,0-4.24,3.65-6.94,9.17-6.94A17.27,17.27,0,0,1,146.67,85.33Z"/><path class="cls-7" d="M161.23,87.73V106h-5.85V87.73H148.5V83h19.66v4.74h-6.94Z"/><path class="cls-7" d="M192,96.38c0,6.08-4,9.93-10.49,9.93s-10.62-3.85-10.62-9.93V83h5.85V96.38c0,3.12,2,5,4.8,5s4.64-1.91,4.64-5V83H192V96.38Z"/><path class="cls-7" d="M206.79,83C214,83,219,87.7,219,94.54S214,106,206.56,106H196.9V83h9.9Zm-4,18.35h4.18c3.58,0,6.15-2.76,6.15-6.81s-2.7-6.87-6.41-6.87h-3.91v13.68Z"/><path class="cls-7" d="M222.77,106V83h5.85v23h-5.85Z"/><path class="cls-7" d="M257.26,94.51c0,6.71-5.33,11.8-12.46,11.8s-12.43-5.06-12.43-11.8,5.33-11.67,12.43-11.67S257.26,87.83,257.26,94.51Zm-18.91,0a6.7,6.7,0,0,0,6.51,6.87A6.85,6.85,0,1,0,238.35,94.54Z"/></svg>